<svg xmlns="http://www.w3.org/2000/svg" width="1600" height="720" viewBox="0 0 1600 720">
<defs><linearGradient id="b" x2="1" y2="1"><stop stop-color="#120c10"/><stop offset=".5" stop-color="#25131d"/><stop offset="1" stop-color="#5a2d39"/></linearGradient><linearGradient id="r" x2="1"><stop stop-color="#ffe5d2"/><stop offset=".5" stop-color="#d69284"/><stop offset="1" stop-color="#8d4855"/></linearGradient></defs>
<rect width="1600" height="720" fill="url(#b)"/>
<circle cx="1280" cy="190" r="260" fill="#f0c6b0" opacity=".08"/><circle cx="1420" cy="510" r="330" fill="#f29ab0" opacity=".06"/>
<text x="90" y="105" font-family="Georgia,serif" font-size="82" fill="#ffe7d2">SEKRETY</text>
<text x="92" y="155" font-family="Arial" font-size="25" letter-spacing="8" fill="#dca69f">BEAUTY WEBSITE RESEARCH + CONVERSION BLUEPRINT</text>
<text x="92" y="215" font-family="Arial" font-size="28" fill="#f5ece9">Od pierwszego wejścia do rezerwacji — bez przypadkowego UX.</text>
<g font-family="Arial" font-weight="700" text-anchor="middle">
<rect x="100" y="310" width="250" height="105" rx="24" fill="#171117" stroke="#b66b71"/><text x="225" y="355" font-size="26" fill="#fff">TRUST</text><text x="225" y="388" font-size="20" fill="#d8a29c">hero · story · reviews</text>
<rect x="385" y="310" width="250" height="105" rx="24" fill="#171117" stroke="#b66b71"/><text x="510" y="355" font-size="26" fill="#fff">SERVICES</text><text x="510" y="388" font-size="20" fill="#d8a29c">problem → solution</text>
<rect x="670" y="310" width="250" height="105" rx="24" fill="#171117" stroke="#b66b71"/><text x="795" y="355" font-size="26" fill="#fff">PROOF</text><text x="795" y="388" font-size="20" fill="#d8a29c">before / after</text>
<rect x="955" y="310" width="250" height="105" rx="24" fill="#171117" stroke="#b66b71"/><text x="1080" y="355" font-size="26" fill="#fff">LOCAL SEO</text><text x="1080" y="388" font-size="20" fill="#d8a29c">NAP · schema · GBP</text>
<rect x="1240" y="310" width="250" height="105" rx="24" fill="#171117" stroke="#b66b71"/><text x="1365" y="355" font-size="26" fill="#fff">BOOKING</text><text x="1365" y="388" font-size="20" fill="#d8a29c">external SaaS CTA</text>
</g>
<path d="M225 465H1365" stroke="url(#r)" stroke-width="5"/>
<text x="90" y="585" font-family="Arial" font-size="26" fill="#efe6e2">Audit-driven structure: Hero → Services → Gallery → Pricing → Reviews → FAQ → Booking</text>
<text x="90" y="655" font-family="Arial" font-weight="700" font-size="24" fill="#d8978c">RESEARCH FIRST · CONVERSION SECOND · NO FAKE CASE-STUDY CLAIMS</text>
</svg>